<svg width="20" height="20" viewBox="0 0 20 20" fill="none" xmlns="http://www.w3.org/2000/svg">
<path fill-rule="evenodd" clip-rule="evenodd" d="M4.49552 9.99978C4.42964 8.5803 4.56161 6.81078 5.32693 5.41349C5.70482 4.72355 6.23529 4.12733 6.97602 3.70063C7.71784 3.27331 8.69845 3 10 3C11.3016 3 12.2822 3.27331 13.024 3.70063C13.7647 4.12733 14.2952 4.72355 14.6731 5.41349C15.4384 6.81078 15.5704 8.5803 15.5045 9.99978C15.439 11.4109 15.8085 12.9004 16.7795 14H3.22048C4.19154 12.9004 4.56101 11.4109 4.49552 9.99978ZM10 2C8.55586 2 7.39626 2.30436 6.47642 2.83423C5.55551 3.36472 4.90289 4.10519 4.44932 4.9333C3.55173 6.57208 3.4273 8.56404 3.49609 10.0461C3.55796 11.3792 3.16718 12.6913 2.26123 13.5556C1.71402 14.0777 2.08373 15 2.84022 15H6.99846C6.99846 16.6569 8.3423 18 10 18C11.6577 18 12.9959 16.6569 12.9959 15H17.1598C17.9163 15 18.286 14.0777 17.7388 13.5556C16.8328 12.6913 16.442 11.3792 16.5039 10.0461C16.5727 8.56404 16.4483 6.57208 15.5507 4.9333C15.0971 4.10519 14.4445 3.36472 13.5236 2.83423C12.6037 2.30436 11.4441 2 10 2ZM11.9959 15H7.99898C7.99898 16.1046 8.89486 17 10 17C11.1051 17 11.9959 16.1046 11.9959 15Z" fill="#4E4E50"/>
</svg>
